<?xml version="1.0"?>
<svg version="1.1" xmlns="http://www.w3.org/2000/svg" width="328" height="108" style=""><path fill="#013775" d="M31.704,57.84l-0.736-3.072s-1.504-0.512-3.584-0.512c-3.36,0-5.28,2.496-5.28,7.84c0,5.184,2.08,7.36,5.44,7.36c3.2,0,6.08-2.24,6.08-2.24l1.76,2.88s-3.36,3.488-8.384,3.488c-6.496,0-10.24-3.904-10.24-11.328c0-7.52,4.224-12,10.784-12c3.872,0,7.456,1.504,7.456,1.504l-0.16,6.08l-3.136,0z M48.32832,55.6c5.184,0,8.064,3.136,8.064,8.64c0,5.76-3.36,9.28-8.544,9.28c-5.216,0-8.16-2.72-8.16-8.8c0-5.76,3.424-9.12,8.64-9.12z M48.16832,59.44c-2.336,0-3.52,1.28-3.52,5.12c0,3.52,1.024,5.12,3.36,5.12c2.304,0,3.424-1.44,3.424-5.28c0-3.264-0.96-4.96-3.264-4.96z M60.21664,58.64l0-2.56l7.36-0.16l0,11.04c0,1.76,0.512,2.56,1.952,2.56c2.08,0,3.616-1.728,3.616-1.728l0-8.352l-2.56-0.8l0-2.56l7.36-0.16l0,13.92l2.56,0.64l0,2.496l-6.752,0.224l-0.32-2.24s-2.56,2.56-5.6,2.56c-3.2,0-5.056-2.144-5.056-5.728l0-8.352z M87.46496,67.6l0.256,2.08s1.12,0.32,2.688,0.32c1.76,0,2.624-0.544,2.624-1.568c0-2.624-8.544-1.664-8.544-7.36c0-4,3.2-5.472,6.592-5.472c2.88,0,5.952,0.96,5.952,0.96l-0.128,4.8l-2.72,0l-0.48-1.92s-0.928-0.32-2.208-0.32c-1.376,0-2.208,0.576-2.208,1.632c0,2.592,8.544,1.472,8.544,7.008c0,3.68-2.976,5.76-7.36,5.76c-3.04,0-5.888-0.704-5.888-0.704l0-5.216l2.88,0z M105.27328,67.6l0.256,2.08s1.12,0.32,2.688,0.32c1.76,0,2.624-0.544,2.624-1.568c0-2.624-8.544-1.664-8.544-7.36c0-4,3.2-5.472,6.592-5.472c2.88,0,5.952,0.96,5.952,0.96l-0.128,4.8l-2.72,0l-0.48-1.92s-0.928-0.32-2.208-0.32c-1.376,0-2.208,0.576-2.208,1.632c0,2.592,8.544,1.472,8.544,7.008c0,3.68-2.976,5.76-7.36,5.76c-3.04,0-5.888-0.704-5.888-0.704l0-5.216l2.88,0z M135.7216,65.616l-10.624,0c0.192,2.56,1.664,4.064,3.872,4.064c2.656,0,5.376-1.504,5.376-1.504l1.376,2.656s-3.2,2.688-7.296,2.688c-5.504,0-8.32-3.2-8.32-8.64c0-5.6,3.168-9.28,8.544-9.28c4.768,0,7.264,2.944,7.264,7.52c0,1.216-0.192,2.4-0.192,2.496z M125.1616,62.64l5.792,0c0-1.824-0.768-3.2-2.624-3.2c-1.792,0-2.912,1.312-3.168,3.2z M142.36192,50.64c0-1.824,1.312-2.88,2.752-2.88c1.664,0,2.688,0.864,2.688,2.88c0,1.888-1.376,2.912-2.688,2.912c-1.728,0-2.752-1.024-2.752-2.912z M147.73792,69.84l2.24,0.8l0,2.56l-9.6,0l0-2.56l2.56-0.8l0-10.4l-2.56-0.8l0-2.56l7.36-0.16l0,13.92z M161.00224,55.92l0.288,2.208s2.304-2.528,4.448-2.528c1.76,0,2.976,0.576,2.976,0.576l-0.256,6.144l-2.88,0l-0.48-2.72c-1.856,0-3.456,1.792-3.456,1.792l0,8.448l3.2,0.8l0,2.56l-10.56,0l0-2.56l2.56-0.8l0-10.4l-2.56-0.8l0-2.56z M180.85856,55.6c5.184,0,8.064,3.136,8.064,8.64c0,5.76-3.36,9.28-8.544,9.28c-5.216,0-8.16-2.72-8.16-8.8c0-5.76,3.424-9.12,8.64-9.12z M180.69856,59.44c-2.336,0-3.52,1.28-3.52,5.12c0,3.52,1.024,5.12,3.36,5.12c2.304,0,3.424-1.44,3.424-5.28c0-3.264-0.96-4.96-3.264-4.96z M194.02688,57.2l0-9.024l4.32,0l-0.704,9.024l-3.616,0z M206.2672,67.6l0.256,2.08s1.12,0.32,2.688,0.32c1.76,0,2.624-0.544,2.624-1.568c0-2.624-8.544-1.664-8.544-7.36c0-4,3.2-5.472,6.592-5.472c2.88,0,5.952,0.96,5.952,0.96l-0.128,4.8l-2.72,0l-0.48-1.92s-0.928-0.32-2.208-0.32c-1.376,0-2.208,0.576-2.208,1.632c0,2.592,8.544,1.472,8.544,7.008c0,3.68-2.976,5.76-7.36,5.76c-3.04,0-5.888-0.704-5.888-0.704l0-5.216l2.88,0z"/><path fill="#c7326d" d="M225.69436375,49.69921875q0-0.8203125,0.28125-1.1015625t0.78515625-0.28125q0.140625,0,0.298828125,0.0234375t0.298828125,0.0703125q0.78515625-0.15234375,1.48828125-0.15234375q1.13671875,0,2.0625,0.3984375q1.48828125,0.6328125,2.4609375,1.875t1.4296875,2.91796875t0.45703125,3.43359375q0,0.984375-0.134765625,2.05078125t-0.521484375,1.98046875q-0.33984375,0.8203125-0.9375,1.716796875t-1.353515625,1.69921875t-1.62890625,1.40625t-1.763671875,0.814453125l0,0.09375q0,0.234375-0.123046875,0.380859375t-0.298828125,0.22265625t-0.404296875,0.099609375t-0.427734375,0.0234375q-0.1171875,0-0.333984375-0.0234375t-0.421875-0.087890625t-0.345703125-0.169921875t-0.140625-0.29296875q0-2.1328125-0.111328125-4.271484375t-0.251953125-4.27734375t-0.251953125-4.271484375t-0.111328125-4.27734375z M227.9092075,49.1015625q0.1171875,1.125,0.15234375,2.244140625t0.10546875,2.244140625q0.1875,2.90625,0.43359375,5.783203125t0.29296875,5.783203125q1.125-0.73828125,1.927734375-1.6875t1.318359375-2.0625t0.755859375-2.337890625t0.240234375-2.525390625q0-0.9375-0.1640625-2.0625t-0.5625-2.16796875t-1.072265625-1.88671875t-1.681640625-1.20703125q-0.2109375-0.0703125-0.509765625-0.1171875t-0.955078125-0.046875q-0.0703125,0-0.140625,0.0234375t-0.140625,0.0234375z M237.6436215625,61.62890625q0-0.796875,0.216796875-1.53515625t0.650390625-1.318359375t1.083984375-0.92578125t1.505859375-0.345703125q0.52734375,0,1.166015625,0.158203125t1.201171875,0.46875t0.9375,0.791015625t0.375,1.1015625q0,0.29296875-0.099609375,0.4453125t-0.404296875,0.15234375l-0.12890625-0.0234375q0.33984375,0.9140625,0.5859375,1.875t0.48046875,1.921875q0.09375,0.1875,0.140625,0.333984375t0.046875,0.287109375q0,0.1875-0.10546875,0.310546875t-0.275390625,0.181640625t-0.3515625,0.08203125t-0.322265625,0.0234375q-0.50390625,0-0.755859375-0.17578125t-0.36328125-0.48046875t-0.134765625-0.685546875t-0.09375-0.767578125q-0.140625,0.45703125-0.369140625,0.890625t-0.5390625,0.779296875t-0.732421875,0.55078125t-0.94921875,0.205078125q-0.7734375,0-1.30078125-0.4453125t-0.849609375-1.095703125t-0.46875-1.388671875t-0.146484375-1.37109375z M239.3076840625,61.46484375q0,0.43359375,0.05859375,0.9140625t0.193359375,0.94921875t0.345703125,0.884765625t0.52734375,0.732421875q0.57421875-0.62109375,0.849609375-1.51171875t0.4921875-1.716796875t0.4921875-1.41796875t0.849609375-0.591796875q0.36328125,0,0.609375,0.12890625q-0.1171875-0.29296875-0.38671875-0.568359375t-0.603515625-0.50390625t-0.69140625-0.375t-0.673828125-0.146484375q-0.09375,0-0.216796875,0.029296875t-0.193359375,0.005859375q-0.48046875,0.140625-0.791015625,0.486328125t-0.50390625,0.814453125t-0.275390625,0.9609375t-0.08203125,0.92578125z M247.799910625,58.60546875q0-0.48046875,0.28125-0.826171875t0.685546875-0.5625t0.884765625-0.322265625t0.890625-0.10546875q0.31640625,0,0.84375,0.09375t1.03125,0.28125t0.873046875,0.4921875t0.369140625,0.71484375q0,0.1875-0.140625,0.333984375t-0.29296875,0.146484375q-0.31640625,0-0.57421875-0.205078125t-0.533203125-0.43359375t-0.603515625-0.43359375t-0.73828125-0.205078125t-0.744140625,0.263671875t-0.333984375,0.697265625q0,0.71484375,0.50390625,1.400390625t1.107421875,1.44140625t1.107421875,1.587890625t0.50390625,1.83984375q0,0.43359375-0.181640625,0.732421875t-0.48046875,0.486328125t-0.673828125,0.287109375t-0.7265625,0.099609375q-0.38671875,0-0.90234375-0.181640625t-0.97265625-0.48046875t-0.767578125-0.697265625t-0.310546875-0.83203125q0-0.2109375,0.298828125-0.26953125t0.439453125-0.05859375q0.0703125,0,0.216796875,0.046875t0.287109375,0.10546875t0.251953125,0.12890625t0.087890625,0.15234375q0.1171875,0.140625,0.357421875,0.416015625t0.48046875,0.4453125t0.421875,0.123046875t0.181640625-0.52734375q0-0.9140625-0.4921875-1.681640625t-1.072265625-1.5t-1.072265625-1.453125t-0.4921875-1.541015625z M256.0577621875,62.90625l0-1.1015625q0-0.59765625,0.029296875-1.693359375t0.076171875-2.40234375t0.12890625-2.724609375t0.1875-2.677734375t0.251953125-2.255859375t0.333984375-1.4765625q0.1171875-0.26953125,0.38671875-0.33984375t0.52734375-0.0703125q0.41015625,0,0.720703125,0.181640625t0.310546875,0.662109375l-0.2109375,0.234375q-0.41015625,2.70703125-0.52734375,5.4375t-0.1640625,5.4609375q0.29296875-0.45703125,0.662109375-0.896484375t0.8203125-0.779296875t0.97265625-0.544921875t1.142578125-0.205078125q0.796875,0,1.318359375,0.48046875t0.861328125,1.248046875t0.50390625,1.716796875t0.251953125,1.8984375t0.123046875,1.798828125t0.10546875,1.412109375q-0.22265625,0.3046875-0.65625,0.3046875l-0.03515625,0q-0.1875,0-0.41015625-0.046875t-0.29296875-0.234375l0.0234375,0.0234375q-0.1640625-0.36328125-0.22265625-1.048828125t-0.09375-1.51171875t-0.123046875-1.693359375t-0.263671875-1.5703125t-0.515625-1.16015625t-0.9140625-0.48046875l-0.0703125,0q-0.69140625,0-1.16015625,0.421875q-0.4921875,0.4453125-0.796875,1.171875t-0.46875,1.6171875t-0.251953125,1.716796875t-0.134765625,1.5t-0.1171875,0.990234375q-0.0703125,0.26953125-0.416015625,0.357421875t-0.591796875,0.087890625q-0.57421875,0-0.9375-0.328125q-0.26953125-0.64453125-0.31640625-1.60546875t-0.046875-1.875z M267.26873875,58.21875q0-0.8203125,0.076171875-2.1328125t0.181640625-2.70703125t0.263671875-2.642578125t0.345703125-1.916015625q0.0703125-0.29296875,0.333984375-0.3515625t0.533203125-0.05859375q0.36328125,0,0.626953125,0.12890625t0.263671875,0.5625q0,2.1328125-0.263671875,4.271484375t-0.287109375,4.271484375q0.36328125-0.55078125,0.9375-0.826171875t1.21875-0.275390625q0.890625,0,1.53515625,0.36328125t1.04296875,0.9375t0.591796875,1.330078125t0.193359375,1.541015625q0,0.43359375-0.087890625,1.083984375t-0.263671875,1.37109375t-0.4453125,1.4296875t-0.638671875,1.271484375t-0.849609375,0.908203125t-1.0546875,0.345703125q-0.1171875,0-0.310546875-0.03515625t-0.38671875-0.10546875t-0.322265625-0.181640625t-0.12890625-0.275390625q0-0.1875,0.228515625-0.263671875t0.369140625-0.076171875q0.52734375-0.234375,0.9375-0.978515625t0.685546875-1.634765625t0.416015625-1.763671875t0.140625-1.423828125q0-0.31640625-0.09375-0.84375t-0.287109375-1.04296875t-0.52734375-0.890625t-0.791015625-0.375q-0.55078125,0-0.87890625,0.568359375t-0.515625,1.32421875t-0.251953125,1.55859375t-0.064453125,1.259765625q0,0.29296875,0.099609375,0.580078125t0.228515625,0.57421875t0.228515625,0.5859375t0.099609375,0.591796875q0,0.140625-0.123046875,0.234375t-0.287109375,0.15234375t-0.345703125,0.076171875t-0.275390625,0.017578125q-0.66796875,0-0.92578125-0.31640625t-0.4453125-0.890625q-0.41015625-1.30078125-0.568359375-2.642578125t-0.158203125-2.689453125z M277.0265903125,61.8515625q0-0.66796875,0.169921875-1.376953125t0.5390625-1.27734375t0.931640625-0.92578125t1.359375-0.357421875q0.59765625,0,1.259765625,0.205078125t1.212890625,0.5859375t0.896484375,0.931640625t0.345703125,1.23046875q0,0.8203125-0.298828125,1.55859375t-0.837890625,1.318359375t-1.259765625,0.9140625t-1.564453125,0.333984375q-0.69140625,0-1.20703125-0.251953125t-0.861328125-0.673828125t-0.515625-0.99609375t-0.169921875-1.21875z M278.7492465625,61.828125q0,0.2109375,0.064453125,0.62109375t0.193359375,0.802734375t0.333984375,0.6796875t0.498046875,0.263671875q0.62109375-0.0703125,1.025390625-0.404296875t0.65625-0.814453125t0.3515625-1.04296875t0.099609375-1.06640625q0-0.64453125-0.251953125-1.078125t-0.826171875-0.703125q0,0.0234375,0.0234375,0.0234375t0.0234375-0.0234375l-0.29296875-0.0703125q-0.1171875-0.046875-0.287109375-0.10546875t-0.333984375-0.2578125q-0.45703125,0.1640625-0.708984375,0.421875t-0.380859375,0.626953125t-0.158203125,0.884765625t-0.029296875,1.2421875z M285.905535625,61.62890625q0-0.796875,0.216796875-1.53515625t0.650390625-1.318359375t1.083984375-0.92578125t1.505859375-0.345703125q0.52734375,0,1.166015625,0.158203125t1.201171875,0.46875t0.9375,0.791015625t0.375,1.1015625q0,0.29296875-0.099609375,0.4453125t-0.404296875,0.15234375l-0.12890625-0.0234375q0.33984375,0.9140625,0.5859375,1.875t0.48046875,1.921875q0.09375,0.1875,0.140625,0.333984375t0.046875,0.287109375q0,0.1875-0.10546875,0.310546875t-0.275390625,0.181640625t-0.3515625,0.08203125t-0.322265625,0.0234375q-0.50390625,0-0.755859375-0.17578125t-0.36328125-0.48046875t-0.134765625-0.685546875t-0.09375-0.767578125q-0.140625,0.45703125-0.369140625,0.890625t-0.5390625,0.779296875t-0.732421875,0.55078125t-0.94921875,0.205078125q-0.7734375,0-1.30078125-0.4453125t-0.849609375-1.095703125t-0.46875-1.388671875t-0.146484375-1.37109375z M287.569598125,61.46484375q0,0.43359375,0.05859375,0.9140625t0.193359375,0.94921875t0.345703125,0.884765625t0.52734375,0.732421875q0.57421875-0.62109375,0.849609375-1.51171875t0.4921875-1.716796875t0.4921875-1.41796875t0.849609375-0.591796875q0.36328125,0,0.609375,0.12890625q-0.1171875-0.29296875-0.38671875-0.568359375t-0.603515625-0.50390625t-0.69140625-0.375t-0.673828125-0.146484375q-0.09375,0-0.216796875,0.029296875t-0.193359375,0.005859375q-0.48046875,0.140625-0.791015625,0.486328125t-0.50390625,0.814453125t-0.275390625,0.9609375t-0.08203125,0.92578125z M296.0618246875,58.34765625q0-0.48046875,0.169921875-0.80859375t0.720703125-0.328125q0.2109375,0,0.52734375,0.064453125t0.36328125,0.322265625q0.1171875,0.69140625,0.12890625,1.5t0.08203125,1.5234375q0.26953125-0.52734375,0.69140625-1.13671875t0.9609375-1.125t1.171875-0.85546875t1.2890625-0.33984375q0.046875,0,0.17578125,0.03515625t0.240234375,0.099609375t0.134765625,0.146484375t-0.12890625,0.15234375q-0.046875,0.140625-0.19921875,0.169921875t-0.26953125,0.029296875q-0.0703125,0-0.22265625-0.05859375q-0.8671875,0.45703125-1.4765625,1.2421875t-0.99609375,1.740234375t-0.5625,2.015625t-0.17578125,2.068359375q0,0.50390625-0.228515625,0.609375t-0.732421875,0.10546875q-0.26953125,0-0.568359375-0.05859375t-0.416015625-0.375q-0.2109375-0.66796875-0.345703125-1.53515625t-0.205078125-1.787109375t-0.099609375-1.810546875t-0.029296875-1.60546875z M304.38998875,61.48828125q0-0.9140625,0.193359375-1.658203125t0.615234375-1.259765625t1.107421875-0.802734375t1.669921875-0.287109375q0.55078125,0,1.125,0.146484375t0.984375,0.544921875q0-0.234375,0.046875-0.966796875t0.1171875-1.705078125t0.146484375-2.0390625t0.134765625-1.98046875t0.10546875-1.53515625t0.0703125-0.703125q0.1171875-0.33984375,0.43359375-0.404296875t0.59765625-0.064453125q0.73828125,0,0.908203125,0.234375t0.169921875,0.9375q0,2.56640625-0.228515625,5.109375t-0.228515625,5.109375q0,1.65234375,0.064453125,3.322265625t0.462890625,3.287109375l0.12890625,0.1171875l0.0703125,0.2109375l-0.17578125,0.26953125q-0.4453125,0.28125-1.03125,0.28125l-0.046875,0q-0.59765625,0-1.1015625-0.28125q-0.1875-0.1171875-0.310546875-0.697265625t-0.193359375-1.27734375t-0.10546875-1.341796875t-0.05859375-0.9140625q-0.41015625,0.9375-1.119140625,1.611328125t-1.787109375,0.673828125q-0.84375,0-1.3828125-0.36328125t-0.837890625-0.92578125t-0.421875-1.259765625t-0.123046875-1.388671875z M305.8079575,61.55859375q0,0.26953125,0.064453125,0.796875t0.205078125,1.0546875t0.392578125,0.9375t0.662109375,0.41015625q0.55078125-0.26953125,0.99609375-0.896484375t0.767578125-1.3828125t0.50390625-1.51171875t0.181640625-1.306640625q0-0.69140625-0.50390625-1.1484375t-1.20703125-0.45703125q-0.2109375,0-0.427734375,0.08203125t-0.404296875,0.1875q-0.43359375,0.41015625-0.673828125,0.744140625t-0.36328125,0.69140625t-0.158203125,0.791015625t-0.03515625,1.0078125z"/></svg>
