<?xml version="1.0"?>
<svg version="1.1" xmlns="http://www.w3.org/2000/svg" width="800" height="305" style="border: dashed 2px #aaa"><path fill="#" d="M48.96,188.5l0-3.78l-10.68,0q-7.44,0-12.48-5.04t-5.04-12.48q0-6.84,5.04-11.76t12.48-4.92l10.68,0l0-3.9l-10.68,0q-9.06,0-15.18,6q-6.12,5.94-6.12,14.58q0,9.18,6.12,15.18q6,6.12,15.18,6.12l10.68,0z M75.4704,167.44l4.5,0q4.56,0,7.56-3t3-7.56q0-4.02-3-7.2q-3.18-3.3-7.56-3.3l-18.78,0l-3.72,0l0,42.12l3.72,0l0-21.06l9.78,0l12.78,21.06l4.5,0z M61.1904,163.72l0-13.56l18.78,0q2.76,0,4.86,1.98q1.98,1.98,1.98,4.74q0,2.88-1.98,4.86q-2.1,1.98-4.86,1.98l-18.78,0z M115.4808,146.5q-6.78,0-11.64,4.86q-4.92,4.92-4.92,11.7l0,9.06q0,6.66,4.92,11.58t11.64,4.92q6.78,0,11.7-4.92q4.86-4.86,4.86-11.58l0-9.06q0-6.84-4.86-11.7t-11.7-4.86z M128.3208,163.06l0,9.06q0,5.46-3.84,9.18q-3.78,3.6-9,3.6t-8.94-3.6q-3.84-3.72-3.84-9.18l0-9.06q0-5.04,3.84-9q3.84-3.84,8.94-3.84q5.04,0,9,3.84q3.84,3.96,3.84,9z M150.5712,150.88l22.62,0l0-4.56l-22.62,0q-4.44,0-7.44,3.48q-3.06,3.54-3.06,8.58q0,4.56,3.06,7.92q3,3.42,7.44,3.42l6,0l6.12,0q2.7,0,4.8,2.28q1.98,2.4,1.98,5.22q0,3.36-1.95,5.46t-4.83,2.1l-22.62,0l0,3.72l22.62,0q4.5,0,7.5-3.12t3-8.16q0-4.56-3-7.92q-3.06-3.36-7.5-3.36l-6.12,0l-6,0q-2.76,0-4.74-2.4q-2.04-2.22-2.04-5.16q0-3.36,1.95-5.43t4.83-2.07z M191.4216,150.88l22.62,0l0-4.56l-22.62,0q-4.44,0-7.44,3.48q-3.06,3.54-3.06,8.58q0,4.56,3.06,7.92q3,3.42,7.44,3.42l6,0l6.12,0q2.7,0,4.8,2.28q1.98,2.4,1.98,5.22q0,3.36-1.95,5.46t-4.83,2.1l-22.62,0l0,3.72l22.62,0q4.5,0,7.5-3.12t3-8.16q0-4.56-3-7.92q-3.06-3.36-7.5-3.36l-6.12,0l-6,0q-2.76,0-4.74-2.4q-2.04-2.22-2.04-5.16q0-3.36,1.95-5.43t4.83-2.07z M227.232,150.16l28.62,0l0-3.72l-32.34,0l0,0.72l0,41.34l3.72,0l0-18.72l15.18,0l0-3.9l-15.18,0l0-15.72z M263.0424,188.56l3.78,0l0-42.18l-3.78,0l0,42.18z M306.8928,146.5l-32.52,0l0,3.66l14.76,0l0,38.46l3.72,0l0-38.46l14.04,0l0-3.66z M314.3232,188.5l3.72,0l0-25.44q0-5.04,3.84-9q3.84-3.84,8.88-3.84t9,3.84q3.84,3.96,3.84,9l0,25.44l3.72,0l0-25.44q0-6.84-4.86-11.7t-11.7-4.86q-6.72,0-11.58,4.86t-4.86,11.7l0,25.44z M359.9736,176.98q0-2.88,2.04-5.22q2.04-2.46,4.92-2.46l0.78,0l11.22,0l0-3.72l-11.22,0l-0.78,0q-3.06-0.6-5.01-2.64t-1.95-4.86q0-3.54,2.07-5.61t5.67-2.07l20.4,0l0-3.78l-20.4,0q-4.62,0-8.04,3.42q-3.42,3.3-3.42,8.04q0,3,1.14,5.46t3.36,3.54q-2.22,1.62-3.36,4.26t-1.14,5.64q0,4.68,3.42,7.98q3.48,3.48,8.04,3.48l20.4,0l0-3.96l-20.4,0q-3.6,0-5.67-2.04t-2.07-5.46z M405.384,150.88l22.62,0l0-4.56l-22.62,0q-4.44,0-7.44,3.48q-3.06,3.54-3.06,8.58q0,4.56,3.06,7.92q3,3.42,7.44,3.42l6,0l6.12,0q2.7,0,4.8,2.28q1.98,2.4,1.98,5.22q0,3.36-1.95,5.46t-4.83,2.1l-22.62,0l0,3.72l22.62,0q4.5,0,7.5-3.12t3-8.16q0-4.56-3-7.92q-3.06-3.36-7.5-3.36l-6.12,0l-6,0q-2.76,0-4.74-2.4q-2.04-2.22-2.04-5.16q0-3.36,1.95-5.43t4.83-2.07z M446.2344,150.88l22.62,0l0-4.56l-22.62,0q-4.44,0-7.44,3.48q-3.06,3.54-3.06,8.58q0,4.56,3.06,7.92q3,3.42,7.44,3.42l6,0l6.12,0q2.7,0,4.8,2.28q1.98,2.4,1.98,5.22q0,3.36-1.95,5.46t-4.83,2.1l-22.62,0l0,3.72l22.62,0q4.5,0,7.5-3.12t3-8.16q0-4.56-3-7.92q-3.06-3.36-7.5-3.36l-6.12,0l-6,0q-2.76,0-4.74-2.4q-2.04-2.22-2.04-5.16q0-3.36,1.95-5.43t4.83-2.07z"/><path fill="#c73261" d="M560.564721875,209.970703125q0.09765625,0.68359375-0.341796875,1.2451171875t-1.07421875,0.5615234375q-0.390625,0-0.5859375-0.09765625q-0.5859375,0.29296875-1.123046875,0.29296875q-0.390625,0-0.5859375-0.1953125q-0.87890625,0-1.318359375-0.29296875q-0.1953125,0.048828125-0.9521484375,0.2685546875t-1.1474609375,0.2197265625q-0.5859375,0-0.78125-0.1953125q-0.341796875,0-1.07421875,0.09765625t-1.123046875,0.09765625q-0.5859375,0.29296875-1.513671875,0.29296875q-0.634765625,0-1.611328125-0.1953125l-0.48828125,0q-0.390625,0-1.1962890625,0.146484375t-1.1962890625,0.146484375q-0.68359375,0-0.927734375-0.390625q-0.5859375,0-0.87890625-0.1953125q-1.025390625,0-1.416015625-0.1953125q-0.048828125,0-0.146484375,0.048828125t-0.146484375,0.048828125q-0.146484375,0-0.439453125-0.09765625t-0.439453125-0.09765625l-0.09765625,0q-0.439453125,0.29296875-1.318359375,0.29296875q-0.244140625,0-0.8056640625,0.146484375t-0.8056640625,0.146484375q-0.29296875,0-0.48828125-0.09765625t-0.5859375-0.09765625l-0.732421875,0l-0.390625,0q-0.48828125-0.048828125-1.5380859375,0.0732421875t-1.4404296875,0.1220703125q-0.634765625,0-0.927734375-0.09765625q-0.1953125,0.09765625-0.390625,0.09765625q-0.146484375,0-0.390625-0.048828125t-0.390625-0.048828125l-0.1953125,0q-0.09765625,0.09765625-0.537109375,0.09765625l-0.29296875,0q-0.1953125,0-0.5859375,0.09765625t-0.5859375,0.09765625q-0.048828125,0-0.1953125-0.048828125t-0.1953125-0.048828125t-0.2197265625-0.048828125t-0.2197265625-0.048828125q-0.29296875,0-0.9521484375,0.1953125t-0.9521484375,0.1953125t-0.68359375-0.1953125l-0.390625,0q-1.806640625,0-2.587890625-0.390625q-0.341796875-0.048828125-0.5859375-0.1708984375t-0.3662109375-0.4150390625t-0.146484375-0.439453125t-0.0732421875-0.5859375t-0.048828125-0.48828125q-0.48828125,0-0.48828125-0.537109375q0-0.48828125,0.48828125-1.46484375q0.1953125-0.29296875,0.1953125-1.025390625l0-0.87890625l0-0.48828125q-0.634765625,0.390625-1.171875,0.390625t-0.537109375-0.48828125q0-0.5859375,0.732421875-1.318359375q0.29296875-0.48828125,0.78125-0.78125q-0.09765625-0.29296875-0.09765625-1.123046875l0-0.1953125q0-0.537109375,0.48828125-1.025390625t0.927734375-0.390625q0.146484375,0,0.4638671875,0.048828125t0.5126953125,0.048828125q0.146484375,0,0.48828125-0.048828125t0.439453125-0.048828125l0.09765625,0q0.390625,0,0.390625,0.29296875l0.09765625,0.09765625q0-0.09765625,0.390625-0.1953125q0.390625-0.1953125,1.025390625-0.1953125q0.5859375,0,0.9765625,0.1953125q1.513671875-0.87890625,1.806640625-1.07421875q-0.048828125-0.048828125-0.341796875-0.537109375t-0.537109375-0.68359375q-0.1953125,0.09765625-0.3662109375-0.0732421875t-0.29296875-0.5126953125t-0.1708984375-0.390625q-0.927734375-0.78125-1.806640625-2.099609375q-1.07421875-1.806640625-1.07421875-2.099609375l0-0.09765625q-0.048828125-0.29296875-0.634765625-1.123046875q-0.927734375-0.634765625-1.85546875-2.001953125q-0.732421875-0.5859375-0.830078125-0.5859375q-0.146484375,0-0.78125,0.390625q-0.1953125,0.09765625-0.8544921875,0.390625t-1.025390625,0.48828125t-0.78125,0.537109375t-0.4638671875,0.68359375q-0.244140625,1.025390625-2.294921875,2.490234375q-0.390625,0.1953125-1.0009765625,0.8544921875t-1.0009765625,0.8544921875q-0.1953125,0.29296875-1.07421875,1.0009765625t-1.025390625,1.1962890625q-0.09765625,0.1953125-0.244140625,0.634765625t-0.3173828125,0.8056640625t-0.4150390625,0.5615234375q0.341796875,0.09765625,1.5625,0.1220703125t1.708984375,0.3662109375q0.830078125,0,1.123046875,0.09765625q0.1953125-0.09765625,0.68359375-0.09765625l0.5859375,0q0.390625-0.1953125,0.830078125-0.1953125l0.1953125,0q0.68359375,0.146484375,0.68359375,3.7109375q0,1.953125-0.29296875,3.41796875q0.29296875,1.7578125,0.29296875,2.001953125q0,1.806640625-1.26953125,2.197265625q-0.78125,0.1953125-1.123046875,0.1953125l-0.5859375,0l-0.390625,0q-0.5859375,0.1953125-1.220703125,0.1953125l-0.1953125,0q-0.87890625-0.244140625-1.806640625-0.341796875t-2.24609375-0.1220703125t-1.7578125-0.0244140625q-0.5859375,0.1953125-0.78125,0.1953125q-0.390625,0-1.2939453125-0.2685546875t-1.2939453125-0.2197265625q-0.390625,0.1953125-0.830078125,0.1953125l-0.29296875,0l-0.29296875-0.09765625l-0.146484375,0.048828125q-0.146484375,0.048828125-0.341796875,0.048828125q-0.048828125,0-0.6591796875,0.048828125t-0.6591796875,0.048828125q-0.5859375,0.29296875-1.513671875,0.29296875q-1.07421875,0-1.806640625-0.29296875q-0.5859375,0.1953125-0.9765625,0.1953125q-0.341796875,0-1.0986328125-0.09765625t-1.0986328125-0.09765625l-0.1953125,0q-0.146484375,0-0.537109375-0.048828125t-0.5859375-0.048828125l-0.29296875,0q-0.9765625,0.48828125-1.07421875,0.48828125q-0.341796875,0-0.634765625-0.29296875q-0.439453125,0.29296875-0.78125,0.29296875q-0.146484375,0-1.123046875-0.1953125l-0.29296875,0q-0.146484375,0-0.48828125,0.048828125t-0.68359375,0.048828125q-0.78125,0-1.5869140625-0.5615234375t-0.8056640625-1.2451171875q0-0.29296875,0.09765625-0.390625q0.1953125-0.29296875,0.1953125-1.220703125q0-0.29296875-0.048828125-0.9765625t-0.048828125-0.927734375q-0.1953125,0.09765625-0.634765625,0.09765625q-0.78125,0-0.78125-0.5859375l0-0.09765625q0.048828125-0.29296875,0.244140625-0.5859375t0.6103515625-0.634765625t0.4638671875-0.390625q-0.537109375,0.146484375-0.537109375-0.48828125q0-0.390625,0.09765625-0.48828125q-0.390625,0-0.390625-0.29296875t0.341796875-0.7080078125t0.68359375-0.4150390625q0.048828125,0,0.146484375,0.048828125t0.146484375,0.048828125l0-0.29296875q0-0.537109375,0.5126953125-1.07421875t1.0009765625-0.537109375q0.048828125,0,0.146484375,0.048828125t0.146484375,0.048828125q0.390625-0.29296875,1.07421875-0.29296875q0.146484375,0,0.537109375,0.048828125t0.5859375,0.048828125q0.390625,0,0.5859375-0.09765625l0.29296875,0l0.29296875,0.09765625q0.048828125,0,0.29296875-0.48828125q0.146484375-0.830078125,0.732421875-1.611328125q0.439453125-0.5859375,1.07421875-0.5859375q0.830078125,0,1.513671875,0.87890625q0.634765625-0.732421875,2.783203125-3.564453125t3.61328125-4.1015625q0.732421875-0.5859375,1.9287109375-2.099609375t1.9775390625-2.099609375q-0.09765625-0.1953125-0.09765625-0.537109375q0-0.9765625,1.708984375-2.2216796875t1.904296875-1.5380859375q0.09765625-0.09765625,0.3662109375-0.4638671875t0.3662109375-0.5126953125t0.341796875-0.4638671875t0.390625-0.48828125t0.390625-0.439453125t0.439453125-0.439453125t0.4638671875-0.3662109375t0.5126953125-0.341796875q0.830078125-0.390625,0.830078125-0.732421875q0-0.146484375-0.341796875-0.68359375q-0.146484375-0.146484375-0.87890625-1.123046875t-1.3671875-1.66015625t-0.927734375-0.48828125q-0.1953125,0.09765625-0.390625,0.09765625q-0.29296875,0-0.29296875-0.537109375q0-0.146484375,0.048828125-0.4638671875t0.048828125-0.4150390625l0-0.09765625q-0.048828125-0.09765625-0.3173828125-0.3662109375t-0.3173828125-0.4150390625q-0.1953125-0.390625-0.7080078125-0.927734375t-0.6591796875-0.78125q-0.29296875-0.439453125-1.220703125-1.5625t-1.26953125-1.85546875q-1.3671875-1.7578125-2.099609375-2.978515625q-0.390625-0.732421875-1.611328125-1.806640625t-1.611328125-1.708984375q-0.146484375-0.1953125-0.390625-0.6103515625t-0.390625-0.6103515625q-0.146484375-0.29296875-0.341796875-0.48828125q-0.09765625-0.09765625-0.29296875-0.09765625q-0.146484375,0-0.537109375,0.048828125t-0.537109375,0.048828125q-0.439453125,0-0.634765625-0.09765625q-0.29296875-0.29296875-0.29296875-0.5859375t0.4638671875-0.830078125t0.3662109375-0.68359375q-0.48828125-0.48828125-0.634765625-0.5859375q-0.439453125-0.29296875-0.9765625-0.830078125q-1.171875-0.29296875-1.318359375-0.390625l-0.1953125,0q-0.146484375,0-0.4150390625-0.146484375t-0.4638671875-0.146484375q-0.244140625,0-0.5615234375-0.146484375t-0.5615234375-0.146484375l-0.1953125,0q-0.5859375,0-0.87890625-0.1953125q-1.85546875,0-2.83203125-0.5859375q-1.171875-0.244140625-1.171875-2.34375q0-0.87890625,0.09765625-1.171875q-0.244140625-1.7578125-0.48828125-2.490234375q-0.78125,0.390625-0.927734375,0.390625q-0.1953125,0-0.29296875-0.09765625t-0.09765625-0.29296875q0-0.341796875,0.5859375-1.0498046875t0.634765625-0.7568359375q0.048828125-0.146484375,0.146484375-0.78125t0.2685546875-1.07421875t0.4638671875-0.634765625q0.634765625-0.29296875,1.7578125-0.48828125t1.66015625-0.439453125q0.09765625-0.09765625,0.390625-0.09765625t1.171875,0.29296875q0.537109375-0.390625,0.927734375-0.390625q0.09765625,0,0.87890625,0.1953125q0.1953125-0.09765625,0.732421875-0.09765625l0.68359375,0l0.390625,0q0.1953125,0,0.6103515625-0.09765625t0.6103515625-0.09765625l0.1953125,0q1.5625,0.29296875,1.708984375,0.390625q0.146484375,0,0.390625-0.048828125t0.390625-0.048828125q0.341796875,0,0.78125,0.29296875q0.09765625-0.09765625,0.439453125-0.09765625q0.48828125,0,1.07421875,0.1953125l0.29296875,0l0.927734375,0l0.390625,0q0.732421875-0.29296875,1.513671875-0.29296875l0.29296875,0l0.29296875,0l0.68359375,0l0.29296875,0l0.341796875,0q0.87890625,0,1.171875,0.29296875q1.220703125,0,1.708984375,0.09765625q0.48828125-0.09765625,1.416015625-0.09765625q0.87890625,0,1.26953125,0.09765625l0.09765625,0q0.09765625,0,0.1953125,0.09765625t0.1953125,0.09765625q0.048828125,0,0.1220703125-0.048828125t0.1220703125-0.048828125q0.439453125-0.29296875,0.87890625-0.29296875q0.390625,0,0.48828125,0.09765625q0.1953125,0.1953125,0.390625,0.1953125q0.244140625,0,0.830078125-0.29296875t0.9765625-0.29296875q0.439453125,0,1.416015625,0.1953125q0.048828125,0,0.4150390625-0.146484375t0.4638671875-0.146484375q0.830078125,0,1.025390625,0.1953125q0.390625,0.244140625,0.390625,0.390625q0-0.09765625,0.390625-0.1953125q0.390625-0.1953125,0.48828125-0.1953125q0.341796875,0,0.537109375,0.1953125q0.09765625,0,0.3662109375-0.048828125t0.4150390625-0.048828125q0.537109375,0,1.123046875,0.1953125q0.48828125-0.48828125,1.5625-0.48828125q0.09765625,0.048828125,0.390625,0.1708984375t0.5615234375,0.2197265625t0.4638671875,0.09765625l0.1953125,0q0.1953125-0.09765625,0.390625-0.09765625q0.439453125,0,0.439453125,0.634765625q0,0.29296875-0.09765625,0.48828125q-0.29296875,0.390625-0.4150390625,1.1474609375t-0.1220703125,0.8544921875q-0.1953125,0.5859375-0.1953125,1.26953125q0,0.244140625,0.048828125,0.68359375t0.048828125,0.634765625q0.87890625-0.29296875,1.025390625-0.29296875l0.1953125,0q0.48828125,0.146484375,0.48828125,0.390625q0,0.146484375-0.1953125,0.5615234375t-0.1953125,0.5615234375q0,0.1953125,0.29296875,0.1953125q0.29296875,0.146484375,0.29296875,0.29296875q0,0.09765625-0.48828125,1.07421875q-0.09765625,0.29296875-0.6591796875,0.5615234375t-0.5615234375,0.5615234375q0.048828125,0.341796875-0.29296875,0.8056640625t-0.78125,0.7080078125q-0.5859375,0.29296875-1.708984375,0.29296875l-0.29296875,0l-0.09765625,0q-0.146484375,0-0.4150390625,0.09765625t-0.4150390625,0.09765625l-0.09765625,0q-0.1953125-0.048828125-0.2685546875-0.1953125t-0.2197265625-0.1953125q-0.09765625,0-0.29296875,0.09765625t-0.29296875,0.09765625q-0.5859375,0.1953125-0.732421875,0.1953125q-0.1953125,0-0.78125-0.1953125q-0.29296875-0.09765625-0.634765625,0.146484375t-0.341796875,0.537109375q0,0.048828125,0.048828125,0.146484375t0.048828125,0.146484375q0,0.1953125,0.29296875,0.48828125q0.48828125,0.830078125,0.68359375,0.830078125q0.29296875,0,0.48828125-0.1953125q0.1953125-0.09765625,0.439453125-0.09765625q0.390625,0,0.390625,0.390625q0,0.634765625-0.634765625,1.07421875q0.09765625,0.09765625,0.2685546875,0.3173828125t0.2685546875,0.3173828125q0.537109375,0.537109375,0.87890625,1.3671875q0.29296875,0.244140625,0.6591796875,0.8056640625t0.4638671875,0.7080078125q0.29296875,0.29296875,0.390625,0.29296875l0.78125-0.390625q0.5859375-0.29296875,0.732421875-0.29296875q0.341796875,0,0.48828125,0.5859375q0.09765625,0.48828125-0.244140625,0.9765625t-0.341796875,0.634765625q0,0.29296875,0.29296875,0.5859375q0.09765625,0.048828125,0.2197265625,0.1708984375t0.1708984375,0.1220703125l0.09765625,0q0.9765625-0.48828125,1.07421875-0.48828125q0.341796875,0,0.439453125,0.1953125q0,0.048828125,0.048828125,0.09765625t0.048828125,0.09765625q0,0.1953125-0.390625,0.5615234375t-0.439453125,0.4638671875l0,0.29296875q0,0.29296875,0.09765625,0.29296875q0.146484375,0,0.3662109375-0.244140625t0.4638671875-0.5615234375t0.29296875-0.3662109375q0.9765625-1.220703125,1.318359375-1.416015625q0.244140625-0.1953125,0.78125-0.8056640625t0.87890625-0.8056640625q0.1953125-0.1953125,0.5126953125-0.9033203125t0.7080078125-0.9033203125q0.29296875-0.244140625,0.4638671875-0.78125t0.5126953125-0.78125q0.244140625-0.1953125,0.9521484375-0.7568359375t1.1474609375-0.8544921875q0.341796875-0.244140625,0.537109375-1.0498046875t0.78125-1.1474609375q-0.390625-0.1953125-0.9765625-0.1953125q-0.244140625,0-0.7080078125,0.048828125t-0.7080078125,0.048828125q-0.341796875,0-1.123046875-0.1953125q-1.3671875,0.68359375-2.099609375,0.68359375q-0.87890625,0-0.87890625-0.68359375q0-0.390625,0.390625-0.634765625q-0.390625-0.78125-0.390625-1.3671875q-0.1953125-1.171875-0.1953125-2.5390625q0-0.68359375,0.09765625-0.9765625q-0.1953125-0.5859375-0.1953125-1.318359375q0-0.1953125,0.048828125-0.48828125t0.048828125-0.390625q-0.09765625-0.390625-0.09765625-1.416015625l0-0.48828125l0-0.09765625q0-0.537109375,0.4638671875-1.0009765625t1.0009765625-0.4150390625q0.244140625,0,0.830078125,0.09765625t0.87890625,0.09765625q0.341796875,0,0.537109375-0.09765625q0.048828125,0,0.1708984375-0.048828125t0.2197265625-0.048828125t0.48828125,0.1953125q0.5859375-0.390625,1.07421875-0.390625q0.244140625,0,0.8544921875-0.146484375t0.8544921875-0.146484375q0.048828125,0,0.1953125,0.048828125t0.1953125,0.048828125q0.634765625,0.244140625,1.806640625,0.48828125q0.244140625,0,0.7568359375-0.09765625t0.7568359375-0.09765625l0.1953125,0q0.1953125,0.048828125,0.5126953125,0.1953125t0.5126953125,0.1953125l0.1953125,0q0.146484375,0,0.244140625-0.048828125t0.146484375-0.048828125q0.09765625,0,0.1953125,0.09765625l0.1953125,0q0.146484375,0,0.4638671875-0.048828125t0.4638671875-0.048828125l0.87890625,0l0.48828125,0q0.1953125,0,0.3662109375-0.0732421875t0.3662109375-0.2197265625t0.390625-0.1953125q0.5859375-0.1953125,1.07421875-0.1953125q0.537109375,0,0.927734375,0.1953125q1.171875,0.390625,2.783203125,0.390625q1.26953125,0,2.001953125-0.48828125q0.5859375-0.1953125,0.68359375-0.1953125q0.1953125,0,0.6103515625,0.1708984375t0.6103515625,0.2197265625q0.1953125,0.09765625,0.5859375,0.09765625l1.025390625,0l0.390625,0l0.1953125,0q0.146484375,0,0.439453125-0.048828125t0.439453125-0.048828125q0.439453125,0,0.634765625,0.1953125q1.171875-0.29296875,2.099609375-0.29296875q0.9765625,0,1.513671875,0.3173828125t0.48828125,1.0986328125q0.1953125,0.78125,0.1953125,1.3671875l0,1.708984375l0,0.830078125q0,0.146484375,0.048828125,0.537109375t0.048828125,0.634765625q0,1.953125-0.390625,2.587890625q0.1953125,0.390625,0.1953125,0.830078125q0,1.123046875-1.220703125,1.806640625q-0.29296875,0.09765625-1.806640625,0.09765625q-0.68359375-0.1953125-0.78125-0.1953125q-0.5859375,0.1953125-0.927734375,0.1953125l-0.29296875,0l-0.29296875,0q-0.1953125,0-0.6591796875,0.09765625t-0.7080078125,0.09765625q-0.68359375,0-0.927734375-0.732421875q-0.9765625,0.732421875-1.171875,0.830078125q-0.09765625,0.09765625-0.2197265625,0.439453125t-0.4150390625,0.439453125q-0.48828125,0.09765625-0.8544921875,0.4638671875t-0.7080078125,0.9521484375t-0.634765625,0.87890625q-0.048828125,0.09765625-0.341796875,0.29296875t-0.341796875,0.439453125q-0.146484375,0.390625-0.732421875,0.78125q-0.1953125,0.146484375-0.68359375,0.6103515625t-0.87890625,0.6103515625q-0.048828125,0.1953125-1.025390625,1.171875q-0.146484375,0.146484375-0.341796875,0.6103515625t-0.537109375,0.7080078125q-0.390625,0.244140625-0.5859375,0.830078125t-0.537109375,0.87890625q-0.146484375,0.146484375-0.634765625,0.4150390625t-0.732421875,0.5615234375q-0.146484375,0.244140625-1.0009765625,1.0986328125t-1.0009765625,1.2939453125q-0.146484375,0.87890625-1.220703125,1.318359375q-0.390625,0.1953125-1.0986328125,0.7080078125t-1.0986328125,0.7080078125q-0.09765625,0.09765625-0.68359375,0.48828125l0,0.29296875q0,0.390625-0.29296875,0.68359375q-0.634765625,0.5859375-1.123046875,1.806640625q-0.146484375,0.29296875-0.3662109375,0.537109375t-0.7568359375,0.5615234375t-0.5859375,0.3173828125q0.048828125,0.048828125,0.439453125,0.537109375t0.732421875,0.8544921875t0.439453125,0.3173828125q0.1953125-0.09765625,0.390625-0.09765625q0.146484375,0,0.2197265625,0.244140625t0.0732421875,0.5859375t0.09765625,0.439453125q0.048828125,0.048828125,0.341796875,0.390625t0.29296875,0.439453125q0.09765625-0.048828125,0.4638671875-0.29296875t0.5126953125-0.244140625q0.048828125,0,0.29296875,0.244140625q0.09765625,0.09765625,0.09765625,0.29296875q0,0.09765625-0.48828125,0.5859375q-0.1953125,0.1953125-0.1953125,0.29296875q0,0.048828125,0.0732421875,0.1220703125t0.1953125,0.2197265625t0.2197265625,0.244140625q0.048828125,0.048828125,0.537109375,0.5859375t0.5859375,0.830078125q0.732421875,0.5859375,1.708984375,1.806640625q0.78125,0,1.07421875,0.390625l0.09765625,0.1953125q0,0.09765625-0.09765625,0.3173828125t-0.09765625,0.3173828125q0,0.048828125,0.048828125,0.09765625t0.048828125,0.09765625q0.1953125,0.390625,0.390625,0.5859375q1.611328125,2.099609375,1.904296875,2.685546875q0.9765625,0.9765625,1.416015625,1.708984375l0.1953125,0q0.146484375,0,0.5126953125-0.09765625t0.5615234375-0.09765625q0.341796875,0,0.439453125,0.09765625q0.29296875,0.29296875,0.29296875,0.390625q0,0.146484375-0.244140625,0.244140625t-0.5859375,0.146484375t-0.390625,0.09765625q2.1484375,1.611328125,3.80859375,4.443359375q0.146484375,0.29296875,0.4638671875,0.78125t0.4638671875,0.78125q0.244140625,0.439453125,1.171875,1.0986328125t1.220703125,1.0986328125q0.341796875,0.146484375,1.171875,0.927734375q0.146484375,0.048828125,0.2685546875,0.146484375t0.29296875,0.244140625t0.2685546875,0.1953125l0.390625,0q0.1953125,0,0.390625,0.09765625q0.09765625-0.09765625,0.390625-0.09765625t0.927734375,0.1953125t0.87890625,0.1953125l0.48828125,0l1.318359375,0q1.806640625,0.48828125,1.806640625,2.001953125q0,0.68359375-0.390625,1.318359375q0,0.78125-0.341796875,1.26953125q0,0.048828125-0.048828125,0.1953125t-0.048828125,0.244140625q0,0.244140625,0.09765625,0.68359375t0.09765625,0.48828125q0.439453125-0.29296875,0.732421875-0.29296875q0.390625,0,0.390625,0.390625q0,0.439453125-0.1953125,0.732421875q-0.68359375,0.927734375-0.68359375,1.5625l0,0.927734375z M558.220971875,209.140625l0,0.09765625l0-0.09765625z M556.463159375,209.140625q0.1953125-0.09765625,0.1953125-0.1953125q-0.1953125,0.09765625-0.1953125,0.1953125q0.146484375-0.09765625,1.26953125-0.78125q0.390625-0.29296875,0.390625-0.390625l0-0.48828125q-0.09765625-0.390625-0.09765625-1.220703125q-0.29296875,0.439453125-0.9521484375,1.3916015625t-0.9521484375,1.3916015625q0.244140625,0,0.341796875,0.09765625z M557.049096875,202.939453125l-0.390625,0.244140625q0.09765625-0.146484375,0.390625-0.244140625q-0.244140625,0-0.439453125-0.09765625t-0.244140625-0.09765625t-0.439453125,0.1953125q-0.68359375,0.68359375-1.5625,1.416015625q0.439453125-0.244140625,1.3427734375-0.7080078125t1.3427734375-0.7080078125z M548.943628125,209.140625l0.09765625,0l-0.09765625,0q0,0.048828125,0.2197265625-0.0732421875t0.4150390625-0.2685546875l0.244140625-0.146484375q-0.5859375,0.390625-0.87890625,0.48828125z M547.1369875,208.1640625l1.513671875-1.025390625l-1.611328125,1.025390625l0.09765625,0q5.126953125-3.271484375,7.8125-5.615234375q-0.09765625-0.09765625-0.48828125-0.09765625q-0.146484375,0-1.318359375,0.29296875q-0.48828125,0.244140625-1.0498046875,0.5859375t-1.1962890625,0.732421875t-0.927734375,0.5859375q-2.5390625,1.66015625-6.54296875,4.39453125q0.244140625,0.048828125,0.7568359375,0.09765625t0.7568359375,0.09765625q0.341796875,0.048828125,0.7080078125-0.1220703125t0.830078125-0.5126953125t0.6591796875-0.439453125z M552.654565625,201.572265625l-0.09765625,0l0.09765625,0q-0.634765625-0.146484375-1.220703125-1.025390625q-0.146484375-0.048828125-0.29296875-0.1220703125l-0.1953125-0.09765625l-0.09765625-0.048828125t-0.09765625-0.0244140625q-0.29296875,0-0.68359375,0.1953125q-2.34375,1.220703125-5.029296875,2.83203125q-0.9765625,0.537109375-2.685546875,1.6357421875t-2.099609375,1.3427734375q-0.341796875,0.244140625-1.2939453125,0.830078125t-1.6357421875,1.0986328125t-1.07421875,1.0498046875q1.171875,0.1953125,3.515625-1.3671875q3.515625-2.44140625,4.6875-3.3203125q0.390625-0.29296875,1.2939453125-1.0498046875t1.5380859375-1.2451171875t1.513671875-0.9765625t1.5625-0.634765625q0.78125-0.146484375,0.78125,0.29296875q0,0.390625-0.5859375,1.0986328125t-0.830078125,0.8056640625q-1.171875,0.927734375-3.9306640625,2.9296875t-4.1259765625,3.173828125q0.1953125,0.1953125,1.6357421875-0.78125t3.1494140625-2.24609375t1.904296875-1.3671875q0.5859375-0.341796875,2.1484375-1.318359375t2.44140625-1.46484375q-0.1953125-0.1953125-0.29296875-0.1953125z M539.763940625,209.140625l0.09765625,0l-0.09765625,0q0.341796875-0.244140625,1.0009765625-0.732421875t1.0009765625-0.732421875q-0.29296875,0.1953125-0.9033203125,0.5859375t-0.9033203125,0.5859375l-0.390625,0.1953125q0,0.09765625,0.1953125,0.09765625z M536.248315625,207.96875l0.09765625-0.09765625l-0.1953125,0.1953125l0.09765625-0.09765625q0.78125-0.78125,0.9765625-0.927734375q-1.806640625,1.07421875-3.173828125,2.197265625q0.29296875-0.09765625,0.68359375-0.3173828125t0.830078125-0.5126953125t0.68359375-0.439453125z M526.33620625,209.140625l0.830078125-0.48828125l-0.830078125,0.48828125l0,0q2.392578125-1.513671875,6.7138671875-4.5654296875t6.2744140625-4.3212890625l1.07421875-0.8056640625t1.318359375-0.9521484375t1.26953125-0.830078125t1.416015625-0.830078125t1.3427734375-0.5615234375t1.3916015625-0.3173828125q0-0.244140625-0.4638671875-0.732421875t-0.6103515625-0.439453125q-0.341796875,0.1953125-1.0009765625,0.5859375t-1.0009765625,0.5859375q-5.859375,3.3203125-7.32421875,4.19921875q-0.439453125,0.244140625-1.953125,1.123046875t-2.1240234375,1.2451171875t-1.9287109375,1.171875t-2.0751953125,1.3671875t-1.7822265625,1.3427734375t-1.85546875,1.5625t-1.5625,1.611328125q0.09765625,0.09765625,0.5859375,0.09765625q1.513671875,0,2.294921875-0.537109375z M522.3323,209.482421875q0.390625-0.146484375,1.1962890625-1.0986328125t1.0009765625-1.0986328125q-1.3671875,0.68359375-1.806640625,0.9765625q-0.390625,0.1953125-0.390625,0.68359375l0,0.537109375z M545.135034375,197.763671875l-0.68359375,0.390625q0.1953125-0.09765625,0.68359375-0.390625q-2.001953125,1.025390625-4.39453125,2.685546875q0.732421875-0.439453125,2.1728515625-1.3427734375t2.2216796875-1.3427734375z M537.85964375,203.37890625l-0.732421875,0.48828125l2.197265625-1.416015625q-0.341796875,0.244140625-1.46484375,0.927734375q-4.98046875,3.22265625-6.591796875,4.296875q6.884765625-3.90625,17.08984375-9.814453125q-0.48828125-0.48828125-0.537109375-0.48828125l-0.390625,0.1953125q-1.025390625,0.5859375-2.197265625,1.171875q-4.00390625,2.587890625-7.373046875,4.638671875z M549.334253125,198.837890625l-0.1953125,0.146484375l0.1953125-0.146484375q-0.244140625,0.1953125-0.68359375,0.5615234375t-0.68359375,0.5615234375l1.46484375-0.87890625q0-0.048828125-0.048828125-0.1220703125t-0.048828125-0.1220703125z M529.26589375,197.275390625q0.29296875-0.390625,2.197265625-1.318359375q0.68359375-0.390625,2.0751953125-1.1962890625t2.1240234375-1.1962890625q5.908203125-3.41796875,6.201171875-3.61328125l0-0.09765625q-1.123046875,0.68359375-3.3447265625,1.9287109375t-3.2958984375,1.8798828125q-0.146484375,0.09765625-1.7333984375,0.9765625t-2.9296875,1.66015625t-1.2939453125,0.9765625z M539.129175,186.337890625l-0.390625,0.439453125l0.390625-0.439453125q-1.5625,1.416015625-6.884765625,5.615234375q2.978515625-1.85546875,6.005859375-3.80859375q0.09765625-0.09765625,0.537109375-0.3173828125t0.6103515625-0.4150390625t0.1708984375-0.439453125q0-0.09765625-0.146484375-0.390625l-0.1953125-0.341796875z M540.545190625,188.2421875l-0.390625,0.439453125l0.390625-0.439453125q-1.85546875,1.806640625-7.8125,5.712890625q0.5859375-0.341796875,3.7109375-2.099609375t4.78515625-2.783203125q-0.244140625-0.146484375-0.68359375-0.830078125z M536.541284375,183.06640625q-0.09765625-0.09765625-0.341796875-0.390625t-0.341796875-0.390625q-1.318359375,1.26953125-3.857421875,3.759765625t-3.857421875,3.7109375q6.103515625-4.1015625,9.326171875-5.712890625q-0.09765625-0.1953125-0.4638671875-0.48828125t-0.4638671875-0.48828125z M534.73464375,180.771484375q-0.390625-0.29296875-4.1748046875,2.7587890625t-5.5908203125,4.7119140625q0.5859375-0.09765625,1.1962890625-0.341796875t1.2939453125-0.6591796875t1.07421875-0.68359375t1.171875-0.8544921875t1.025390625-0.732421875q0.830078125-0.537109375,2.24609375-1.66015625t1.85546875-1.46484375q0.390625-0.244140625,0.390625-0.48828125q0-0.048828125-0.0732421875-0.09765625t-0.1953125-0.1953125t-0.2197265625-0.29296875z M506.756128125,197.666015625q0.439453125-0.244140625,0.634765625-0.7568359375t0.439453125-0.7568359375q-3.02734375,1.513671875-6.7138671875,3.759765625t-5.615234375,3.5400390625t-6.3720703125,4.3212890625q2.685546875-1.3671875,5.5419921875-3.0029296875t6.591796875-3.857421875t5.4931640625-3.2470703125z M486.248315625,204.2578125q0,0.09765625,0.634765625-0.29296875t1.416015625-0.87890625t0.927734375-0.537109375q-0.390625-0.1953125-0.5859375-0.390625q-0.29296875,0.48828125-1.2939453125,0.9765625t-1.0986328125,1.123046875z M513.1526125,183.1640625l-1.513671875,0.78125q1.123046875-0.5859375,1.513671875-0.78125q-1.806640625,0.87890625-4.58984375,2.490234375q-0.146484375,0.09765625-0.9521484375,0.5126953125t-1.3671875,0.8056640625t-0.6103515625,0.68359375q1.26953125-0.78125,3.7841796875-2.2705078125t3.7353515625-2.2216796875z M523.064721875,166.3671875l-0.537109375,0.48828125l0.537109375-0.48828125q-1.611328125,1.513671875-5.6396484375,4.296875t-5.8837890625,4.6875q0.1953125,0.1953125,1.7822265625-0.7568359375t3.3935546875-2.2216796875t1.904296875-1.318359375q1.85546875-1.3671875,4.638671875-3.173828125q0.390625-0.244140625,0.390625-0.537109375q0-0.146484375-0.0732421875-0.2685546875t-0.244140625-0.3173828125t-0.2685546875-0.390625z M553.435815625,151.279296875l0.5859375-0.439453125q-0.5859375,0.341796875-0.5859375,0.439453125q0.48828125-0.29296875,1.46484375-0.9033203125t1.46484375-0.9033203125l-0.439453125,0q-0.439453125,0-0.927734375,0.244140625t-1.0986328125,0.6591796875t-0.8544921875,0.5615234375q0.09765625,0.048828125,0.390625,0.341796875z M536.248315625,160.556640625l-3.125,1.708984375q0.537109375-0.244140625,1.5625-0.830078125t1.5625-0.87890625z M558.660425,144.98046875l-0.09765625-0.09765625q0,0.09765625,0.09765625,0.09765625z M531.365503125,161.97265625l0.390625-0.29296875q-0.09765625,0.09765625-0.390625,0.29296875q0.09765625-0.244140625,1.7578125-1.220703125l1.904296875-1.26953125q-0.78125,0.390625-2.0263671875,1.318359375t-1.6357421875,1.171875z M557.928003125,146.4453125q0.09765625-0.09765625,0.29296875-0.09765625l0.244140625,0.09765625q0.1953125,0,0.1953125-0.390625q-0.1953125-0.1953125-0.29296875-0.1953125q-0.048828125,0-0.1220703125,0.048828125t-0.1220703125,0.048828125q-0.29296875,0.146484375-0.830078125,0.4638671875t-0.830078125,0.4638671875q-1.07421875,0.634765625-3.173828125,1.806640625t-3.125,1.7578125q0.537109375-0.244140625,2.2216796875-0.9765625t2.5634765625-1.220703125q0.48828125-0.29296875,1.4892578125-0.9033203125t1.4892578125-0.9033203125z M513.44558125,177.939453125l0.1953125-0.390625q0.146484375-0.390625,0.390625-0.5859375q0.341796875-0.244140625,1.0986328125-0.7568359375t1.0986328125-0.7568359375q0.29296875-0.146484375,4.4921875-2.880859375q2.1484375-1.3671875,9.619140625-6.201171875q1.66015625-1.07421875,5.0048828125-3.22265625t5.0048828125-3.271484375q2.294921875-1.46484375,4.39453125-2.9296875q0.537109375-0.732421875,2.197265625-1.3671875q0.78125-0.5859375,1.220703125-1.416015625q-6.34765625,4.150390625-12.20703125,7.71484375q-0.87890625,0.439453125-2.587890625,1.3916015625t-2.5390625,1.3916015625q-0.29296875,0.146484375-1.0986328125,0.4638671875t-1.416015625,0.6103515625t-0.8544921875,0.634765625q-0.439453125,0.634765625-1.123046875,1.0498046875t-1.5869140625,0.8056640625t-1.2939453125,0.634765625q-0.87890625,0.634765625-2.63671875,1.8310546875t-2.685546875,1.7822265625q-4.1015625,2.83203125-5.908203125,3.80859375q0.927734375,0.927734375,1.220703125,1.66015625z M524.041284375,171.73828125q1.611328125-0.927734375,5.0537109375-2.83203125t6.0546875-3.4423828125t4.9072265625-3.1005859375q-0.537109375,0.048828125-1.123046875,0.244140625t-0.9765625,0.341796875t-1.123046875,0.5615234375t-0.927734375,0.537109375t-1.0498046875,0.6591796875t-0.9033203125,0.537109375q-2.734375,1.611328125-9.912109375,6.494140625z M541.76589375,160.458984375q0.1953125-0.390625,0.29296875-0.48828125q-1.318359375,0.732421875-2.490234375,1.611328125q0.390625-0.09765625,0.9765625-0.09765625l0.390625,0q0.29296875-0.1953125,0.4150390625-0.3173828125t0.1953125-0.3173828125t0.2197265625-0.390625z M543.767846875,158.84765625l0.1953125-0.1953125l-0.439453125,0.1953125l0.244140625,0z M521.160425,186.58203125l0-0.09765625l0,0.09765625q0-0.29296875,0.537109375-0.732421875t1.416015625-0.9521484375t0.927734375-0.5126953125q0.48828125-0.341796875,1.4404296875-1.025390625t1.3427734375-0.9765625q0.68359375-0.439453125,2.001953125-1.46484375t2.001953125-1.46484375q-2.685546875,1.5625-6.787109375,4.00390625q-0.68359375,0.341796875-1.8310546875,1.0009765625t-1.5869140625,0.9033203125q-0.1953125,0.09765625-0.1953125,0.390625q0,0.1953125,0.1708984375,0.4150390625t0.341796875,0.341796875t0.2197265625,0.0732421875z M517.15651875,185.654296875q0.09765625-0.09765625,0.09765625-0.1953125q-6.54296875,4.248046875-16.796875,10.986328125q1.46484375-0.830078125,4.4921875-2.5634765625t4.4921875-2.6123046875q0.927734375-0.48828125,2.6611328125-1.513671875t2.6611328125-1.513671875q2.001953125-1.220703125,2.392578125-2.587890625z M521.45339375,182.87109375l-0.09765625,0.09765625q0,0.048828125,0.2685546875-0.0732421875t0.537109375-0.29296875t0.2685546875-0.2197265625l-0.9765625,0.48828125q-0.390625,0.244140625-1.1474609375,0.7568359375t-1.1474609375,0.7568359375q0.244140625,0,0.390625,0.146484375t0.1953125,0.146484375l0.1953125,0q0.48828125-0.341796875,1.220703125-0.732421875q0.68359375-0.390625,2.0263671875-1.1962890625t2.0751953125-1.1962890625q1.07421875-0.634765625,3.173828125-1.8310546875t3.125-1.7822265625q-1.708984375,0-4.00390625,1.611328125q-2.490234375,1.66015625-6.103515625,3.3203125z M530.04714375,176.279296875q0,0.09765625,0.09765625,0.09765625l0-0.09765625l0-0.09765625l-0.09765625,0.09765625l0,0.29296875q0,0.1953125-0.1953125,0.78125q1.171875-0.390625,1.904296875-0.390625q-0.68359375-0.87890625-1.123046875-0.87890625q-0.1953125,0-0.5859375,0.1953125z M529.754175,174.765625l-0.09765625,0.09765625l0.09765625-0.09765625q-0.146484375,0.09765625-0.4638671875,0.29296875t-0.4638671875,0.29296875q0.09765625,0,0.29296875,0.048828125t0.244140625,0.048828125q0.09765625,0,0.68359375-0.29296875q-0.048828125-0.048828125-0.146484375-0.1953125t-0.146484375-0.1953125z M529.021753125,176.767578125l-0.68359375,0.48828125q0.537109375,0,0.68359375-0.48828125q-4.150390625,2.880859375-5.56640625,3.90625q0.1953125-0.09765625,1.806640625-0.87890625t2.5390625-1.46484375t1.220703125-1.5625z M519.744409375,181.943359375l1.416015625-0.9765625l-1.513671875,1.07421875l0.09765625-0.09765625q4.052734375-2.880859375,8.203125-5.56640625q-0.830078125,0.146484375-1.806640625,0.6591796875t-2.1484375,1.318359375t-1.66015625,1.0986328125q-2.294921875,1.3671875-6.103515625,3.61328125q-7.080078125,3.955078125-9.9609375,5.908203125q1.318359375-0.634765625,3.7109375-1.7333984375t3.271484375-1.4892578125q3.759765625-1.85546875,6.494140625-3.80859375z M500.35964375,193.271484375l0.09765625-0.09765625l-0.09765625,0.09765625q-1.025390625,0.5859375-1.513671875,1.708984375q1.318359375-0.390625,2.63671875-1.0009765625t2.8564453125-1.5625t2.392578125-1.4892578125t2.7099609375-1.85546875t2.294921875-1.611328125q-5.2734375,2.44140625-6.494140625,3.076171875q-1.171875,0.48828125-2.880859375,1.416015625q-0.29296875,0.146484375-0.9521484375,0.6591796875t-1.0498046875,0.6591796875z M497.5276125,197.080078125q-0.048828125,0.048828125-0.09765625,0.146484375t-0.09765625,0.146484375q0.439453125-0.29296875,1.416015625-0.9033203125t1.416015625-0.9033203125q-0.146484375,0.048828125-0.5859375,0.146484375t-0.6591796875,0.1953125t-0.537109375,0.244140625t-0.537109375,0.3662109375t-0.3173828125,0.5615234375z M485.955346875,207.041015625l0-0.09765625l0,0.09765625l0,0.09765625q0.78125-0.68359375,0.9765625-0.87890625q-0.5859375,0-0.5859375-0.48828125q-0.1953125,0.09765625-0.2685546875,0.29296875t-0.0732421875,0.48828125t-0.048828125,0.48828125z M485.760034375,208.84765625l1.07421875-0.68359375l-1.07421875,0.68359375q1.123046875-0.78125,3.173828125-2.1728515625t3.7353515625-2.5146484375t3.1982421875-2.099609375q-2.880859375,1.85546875-5.908203125,3.3203125q-0.830078125,0.341796875-2.5390625,1.611328125t-1.66015625,1.85546875z M518.035425,189.072265625q0,0.048828125-0.048828125,0.146484375t-0.048828125,0.146484375q0.1953125-0.09765625,0.6103515625-0.341796875t0.6103515625-0.341796875q-0.09765625-0.09765625-0.09765625-0.341796875l0-0.1953125l0.1953125-0.390625l-0.1953125-0.1953125q-0.78125,0.78125-1.025390625,1.513671875z M529.754175,181.552734375l0.09765625-0.09765625l-0.09765625,0.09765625q0.341796875-0.146484375,0.48828125-0.48828125z M532.732690625,179.2578125l0,0.09765625l0-0.09765625q-0.1953125,0.390625-0.1953125,0.48828125q0.146484375-0.09765625,0.4638671875-0.29296875t0.4638671875-0.29296875q-0.048828125-0.048828125-0.1220703125-0.146484375t-0.1220703125-0.146484375z M554.65651875,151.767578125l0.1953125-0.1953125q-0.09765625,0.048828125-0.29296875,0.1953125t-0.29296875,0.1953125q0.048828125-0.048828125,0.1953125-0.09765625t0.1953125-0.09765625z M557.830346875,150.64453125l0.09765625,0l-0.09765625,0q0.439453125,0,0.634765625,0.1953125q0-0.390625,0.09765625-1.220703125t0.09765625-1.171875q0-0.5859375-0.09765625-0.78125q-0.244140625,0.146484375-0.8056640625,0.439453125t-0.8056640625,0.439453125q0.68359375,0.29296875,0.68359375,0.732421875q0,0.68359375-1.611328125,1.46484375l0.439453125,0q0.244140625,0,0.68359375-0.048828125t0.68359375-0.048828125z M553.533471875,144.443359375l-0.09765625,0l0.09765625,0l-0.48828125,0q-1.5625,0-3.515625,0.927734375q-2.5390625,1.5625-4.19921875,2.490234375q-0.78125,0.439453125-2.3681640625,1.3427734375t-2.4169921875,1.3427734375q-0.1953125,0.146484375-0.6103515625,0.4150390625t-0.6103515625,0.4150390625q-0.341796875,0.244140625-1.0498046875,0.732421875t-1.0498046875,0.732421875q0.341796875,0.341796875,0.341796875,0.830078125l0,0.1953125q2.978515625-1.66015625,8.447265625-4.8828125t7.8125-4.541015625l-0.29296875,0z M530.535425,150.64453125l0-0.09765625l0,0.09765625q0.390625-0.146484375,0.927734375-0.6103515625t1.220703125-1.220703125t0.78125-0.8544921875q2.099609375-1.953125,3.466796875-3.41796875q-0.09765625-0.09765625-0.48828125-0.09765625q-0.439453125,0-1.0498046875,0.3173828125t-1.318359375,0.8056640625t-0.8544921875,0.5859375q-1.953125,1.318359375-2.685546875,1.708984375q-0.48828125,0.5859375-0.48828125,0.68359375l0,0.439453125q0,0.146484375-0.048828125,0.439453125t-0.048828125,0.439453125q0,0.537109375,0.5859375,0.78125z M538.347925,146.884765625l0.09765625,0q-0.09765625,0.09765625-0.1953125,0.09765625l0.09765625-0.09765625q0.29296875-0.146484375,0.5859375-0.439453125q-0.9765625,0.732421875-1.171875,0.830078125q0.390625-0.1953125,0.5859375-0.390625z M539.666284375,144.98046875l-0.634765625,0.29296875q0.146484375-0.09765625,0.634765625-0.29296875q-1.025390625-0.341796875-1.318359375-0.341796875l-0.1953125,0q-1.123046875,1.416015625-3.3203125,3.3203125q0.830078125-0.48828125,2.44140625-1.4892578125t2.392578125-1.4892578125z M531.463159375,144.638671875q-0.048828125,0-0.29296875,0.0732421875t-0.439453125,0.0732421875q-0.09765625,0-0.3173828125-0.0732421875t-0.2685546875-0.0732421875q0,0.390625,0.048828125,1.171875t0.048828125,1.171875q0.732421875-0.439453125,2.0263671875-1.318359375t1.6845703125-1.123046875q-0.1953125-0.048828125-0.5859375,0.244140625t-0.634765625,0.29296875q-0.146484375,0-0.390625-0.0732421875t-0.5126953125-0.1953125t-0.3662109375-0.1708984375z M541.326440625,148.154296875l-0.9765625,0.68359375l0.9765625-0.68359375q-4.39453125,2.83203125-5.56640625,3.41796875q0.09765625,0.09765625,0.390625,0.09765625q0.341796875,0,0.8544921875-0.2685546875t1.025390625-0.6591796875t0.7080078125-0.48828125q0.732421875-0.439453125,2.6611328125-1.6357421875t2.9541015625-1.8798828125q-0.48828125,0.244140625-1.513671875,0.7080078125t-1.513671875,0.7080078125z M508.75808125,171.982421875q2.1484375-1.220703125,6.4453125-3.6865234375t6.4453125-3.7353515625q-0.390625-0.390625-0.68359375-0.390625q-0.09765625,0-1.123046875,0.68359375q-2.685546875,1.708984375-3.515625,2.294921875q-0.341796875,0.146484375-2.2216796875,1.26953125t-3.6376953125,2.2705078125t-1.708984375,1.2939453125z M508.123315625,171.15234375q-0.048828125-0.048828125,0.87890625-0.6591796875t2.099609375-1.2939453125l1.123046875-0.732421875q-2.34375,1.416015625-3.271484375,1.416015625q-0.87890625,0-1.025390625-0.830078125q-0.29296875,0.09765625-0.87890625,0.09765625l-0.390625,0q0.1953125,0.341796875,0.732421875,1.0009765625t0.732421875,1.0009765625z M520.330346875,163.046875l-0.09765625,0.09765625l0.09765625-0.09765625q-5.517578125,3.80859375-6.591796875,4.4921875q5.56640625-3.41796875,6.689453125-4.296875z M522.1369875,161.77734375l0.09765625-0.09765625z M518.865503125,162.8515625q0.68359375-0.439453125,0.78125-0.48828125q-0.048828125-0.09765625-0.1953125-0.29296875t-0.1953125-0.29296875q-2.34375,1.806640625-6.396484375,4.58984375q-0.390625,0.29296875-1.26953125,0.8056640625t-1.025390625,0.6103515625q-0.048828125,0.048828125-0.78125,0.4150390625t-0.830078125,0.6591796875q0.390625,0.048828125,0.87890625-0.146484375t0.8056640625-0.390625t0.830078125-0.537109375l0.6591796875-0.439453125q3.857421875-2.392578125,6.73828125-4.4921875z M517.0588625,158.5546875q-0.29296875-0.244140625-1.2939453125,0.537109375t-2.3681640625,2.24609375t-2.5634765625,2.8076171875t-2.3681640625,2.7099609375t-1.220703125,1.416015625q0.732421875-0.146484375,1.416015625-0.6103515625t1.4892578125-1.2451171875t1.1962890625-1.07421875q2.63671875-1.85546875,7.275390625-4.4921875q-0.1953125-0.29296875-0.7568359375-1.07421875t-0.8056640625-1.220703125z M515.252221875,157.67578125q0.390625-0.244140625,0.78125-0.390625q-1.318359375-2.099609375-1.3671875-2.24609375q-1.025390625,0.927734375-9.130859375,8.203125q1.220703125-0.68359375,3.41796875-2.1240234375t3.076171875-1.9775390625q2.099609375-1.26953125,3.22265625-1.46484375z M516.96120625,151.376953125q0.1953125-0.29296875,0.68359375-0.29296875l0.48828125,0q0.537109375,0.1953125,0.634765625,0.390625q0.68359375-0.341796875,0.87890625-0.634765625q1.806640625-1.025390625,2.001953125-1.171875q0.5859375-0.439453125,0.5859375-1.416015625q0-0.439453125-0.29296875-1.904296875q-4.248046875,3.7109375-12.98828125,10.009765625q0.927734375-0.537109375,4.1015625-2.392578125q0.927734375-0.537109375,1.171875-1.025390625q0.146484375-0.1953125,1.318359375-0.87890625t1.416015625-0.68359375z M525.94558125,150.3515625l-0.1953125,0l0.1953125,0z M517.8401125,144.638671875q-1.611328125,0.87890625-3.3935546875,2.1240234375t-3.9794921875,2.9296875t-3.3203125,2.4658203125l12.59765625-7.177734375q-0.341796875-0.341796875-1.513671875-0.341796875l-0.390625,0z M505.63308125,151.181640625l0.1953125-0.09765625l-0.9765625,0.68359375q0.1953125-0.1953125,0.78125-0.5859375q0.68359375-0.439453125,1.9287109375-1.2939453125t1.7822265625-1.2451171875q-1.7578125,0.87890625-3.6865234375,2.05078125t-4.248046875,2.6611328125t-3.5888671875,2.2216796875q2.34375-0.830078125,7.8125-4.39453125z M513.347925,144.98046875l-0.1953125,0.1953125l0.1953125-0.1953125q-0.146484375,0.146484375-1.611328125,1.3671875q2.5390625-1.26953125,3.02734375-1.5625l-0.537109375,0q-0.48828125,0-0.87890625,0.1953125z M506.951440625,144.8828125l-0.09765625,0l0.09765625,0.09765625l0.09765625,0q0-0.09765625-0.09765625-0.09765625l-0.29296875,0q-0.146484375,0-0.5859375-0.048828125t-0.634765625-0.048828125q-0.5859375,0-0.5859375,0.1953125q-0.09765625,0.1953125-0.4638671875,0.5615234375t-0.4638671875,0.5126953125q-0.830078125,0.87890625-5.56640625,5.126953125q1.611328125-1.025390625,4.736328125-3.02734375t4.736328125-2.978515625q-0.78125-0.1953125-0.87890625-0.29296875z M486.345971875,149.375q0.48828125-0.78125,1.4892578125-2.24609375t1.4892578125-2.24609375q-0.09765625,0-1.8310546875,0.9765625t-1.7333984375,1.025390625q0.341796875,0.634765625,0.5859375,2.490234375z M491.76589375,144.248046875q-0.1953125,0.09765625-0.68359375,0.244140625t-0.634765625,0.390625q-0.244140625,0.390625-0.7080078125,1.025390625t-0.6103515625,0.830078125q-0.390625,0.634765625-1.1962890625,1.8310546875t-1.1962890625,1.7822265625q1.85546875-1.171875,5.322265625-3.1494140625t4.58984375-2.6611328125q-0.341796875,0-0.9765625-0.09765625t-0.927734375-0.09765625t-0.48828125,0.09765625q-0.29296875,0.09765625-1.025390625,0.09765625q-0.87890625,0-1.46484375-0.29296875z M494.060815625,153.28125q0,0.1953125,0.29296875,0.1953125q0.09765625-0.244140625,0.3662109375-0.537109375t0.6591796875-0.5859375t0.48828125-0.390625q0.244140625-0.244140625,0.732421875-0.634765625t0.87890625-0.732421875t0.68359375-0.634765625q2.5390625-2.05078125,4.296875-3.80859375q-1.611328125,0.927734375-4.98046875,3.1005859375t-5.224609375,3.1982421875q0.09765625,0.09765625,0.1953125,0.09765625l0.29296875,0l0.1953125,0q0.537109375,0.146484375,1.123046875,0.732421875z M495.720971875,154.84375q0.09765625,0.09765625,1.953125-0.927734375t3.9306640625-2.24609375t2.3193359375-1.318359375q4.736328125-2.587890625,7.71484375-5.17578125q-0.390625,0-0.68359375-0.29296875q-0.439453125,0.29296875-0.927734375,0.29296875l-0.390625,0l-0.390625,0.29296875q-0.48828125,0.29296875-1.4404296875,0.9033203125t-1.4404296875,0.9033203125q-5.126953125,3.125-5.810546875,3.564453125q-0.244140625,0.146484375-1.5625,1.07421875t-2.1484375,1.416015625t-1.708984375,0.732421875q0.1953125,0.1953125,0.5859375,0.78125z M494.353784375,157.7734375q0.1953125,0,0.5859375-0.1953125q0-0.048828125-0.09765625-0.2197265625t-0.09765625-0.2197265625q-0.390625,0.390625-0.390625,0.634765625z M499.96901875,160.361328125q0.732421875,0.5859375,0.78125,0.5859375q0.146484375,0,0.68359375-0.390625q0.9765625-0.732421875,2.587890625-1.806640625q1.318359375-0.9765625,4.0283203125-2.9296875t4.0771484375-2.978515625q0.87890625-0.68359375,3.3203125-2.490234375t3.7109375-2.880859375q0.048828125,0,0.9521484375-0.6591796875t1.46484375-1.220703125t0.5615234375-0.9521484375q-0.09765625-0.048828125-0.341796875,0.1220703125t-0.5126953125,0.3662109375t-0.3173828125,0.244140625q-0.5859375,0.29296875-1.6357421875,0.9033203125t-1.5869140625,0.9033203125q-1.611328125,0.9765625-4.8095703125,2.8076171875t-4.8095703125,2.7587890625q-1.513671875,0.927734375-4.4189453125,2.5390625t-3.8818359375,2.197265625q-1.26953125,0.830078125-1.5625,0.78125q-0.29296875-0.146484375-0.29296875-0.29296875q0-0.48828125,2.587890625-2.197265625q-1.953125,1.171875-3.02734375,1.708984375q0.09765625,0.146484375,0.3173828125,0.48828125t0.3173828125,0.48828125q0.244140625,0.341796875,0.9033203125,0.9521484375t0.9033203125,0.9521484375z M501.72683125,162.4609375l0.09765625,0l0.537109375-0.09765625q-0.244140625,0-0.634765625,0.09765625q0.1953125,0.244140625,0.634765625,0.9033203125t0.68359375,0.9033203125q5.322265625-4.931640625,7.91015625-7.2265625q-0.48828125,0.341796875-2.0751953125,1.46484375t-2.4169921875,1.6845703125t-2.197265625,1.26953125t-2.5390625,1.0009765625z M505.7307375,168.173828125l0.1953125,0.1953125q0.048828125-0.146484375,0.1953125-0.3662109375t0.29296875-0.3662109375t0.3662109375-0.341796875t0.2685546875-0.244140625q0.341796875-0.439453125,1.0986328125-1.2939453125t1.0986328125-1.2939453125q0.537109375-0.5859375,1.6357421875-1.7822265625t1.6845703125-1.8310546875q-8.88671875,4.443359375-8.740234375,4.6875q0.87890625,1.025390625,1.904296875,2.63671875z M509.92995625,173.349609375q0.146484375,0.146484375,1.025390625,1.318359375q0.48828125-0.48828125,3.4912109375-2.7099609375t5.56640625-4.19921875t2.4169921875-2.2216796875q-0.9765625,0.634765625-3.0517578125,1.9287109375t-3.3203125,2.05078125t-3.0517578125,1.7822265625t-3.369140625,1.7578125z M508.4651125,184.482421875l0,0.09765625q0.1953125-0.09765625,0.1953125-0.1953125q-0.09765625,0-0.1953125,0.09765625t-0.2685546875,0.244140625t-0.2685546875,0.244140625q8.056640625-4.833984375,20.60546875-10.791015625q0.09765625-0.048828125,0.3662109375-0.1953125t0.4638671875-0.2685546875t0.29296875-0.2685546875q0.048828125-0.390625,0.4638671875-0.732421875t0.5126953125-0.537109375q0.146484375-0.29296875,0.439453125-0.537109375t0.7568359375-0.4638671875t0.6103515625-0.3173828125q0.048828125-0.341796875,0.2197265625-0.5859375t0.537109375-0.537109375t0.4638671875-0.390625q0-0.146484375,0.3662109375-0.5615234375t0.5126953125-0.5126953125q0.634765625-0.634765625,0.78125-0.732421875q0.09765625-0.048828125,0.29296875-0.48828125t0.634765625-0.390625q0.29296875-0.390625,0.68359375-0.9765625q-0.537109375,0.341796875-2.6123046875,1.7333984375t-2.8076171875,1.85546875t-2.5634765625,1.66015625t-2.880859375,1.8310546875t-2.63671875,1.5380859375t-2.978515625,1.6357421875t-2.8076171875,1.416015625q-2.1484375,0.927734375-2.880859375,1.025390625q-0.146484375,0-0.48828125,0.1708984375l-0.439453125,0.2197265625q-0.341796875,0.244140625-0.7568359375,0.830078125t-0.7568359375,0.78125q-0.537109375,0.1953125-1.3671875,1.0986328125t-1.416015625,1.0009765625q0.1953125,0.390625,0.1953125,0.5859375q0,1.07421875-1.26953125,1.416015625z M491.326440625,199.08203125l0,0.09765625l0-0.09765625q-0.09765625,0.09765625-0.09765625,0.1953125t0.29296875,0.09765625q-0.048828125-0.048828125-0.09765625-0.146484375t-0.09765625-0.146484375z M483.75808125,205.576171875l0,0.09765625l0-0.09765625q-0.09765625,0.09765625-0.09765625,0.1953125q0.09765625-0.09765625,0.09765625-0.1953125z M490.935815625,209.04296875l0.09765625,0l-0.09765625,0q0.390625-0.1953125,0.48828125-0.1953125q0.146484375,0,0.48828125,0.09765625t0.439453125,0.09765625q0.1953125,0,0.390625-0.1953125q0.5859375-0.439453125,1.220703125-1.07421875q2.099609375-1.85546875,4.39453125-3.515625q-6.689453125,3.271484375-10.302734375,5.322265625q0.048828125,0,0.146484375,0.048828125t0.146484375,0.048828125q0.1953125,0,1.07421875-0.3173828125t1.220703125-0.3173828125l0.29296875,0z M498.064721875,209.482421875q0.244140625,0,0.5126953125-0.09765625t0.48828125-0.2197265625t0.5615234375-0.390625t0.48828125-0.439453125t0.4638671875-0.48828125l0.3662109375-0.3662109375q0.78125-0.634765625,2.3681640625-1.953125t2.4169921875-1.953125q-1.708984375,0.9765625-5.0537109375,2.9052734375t-5.0537109375,2.9052734375q0.244140625,0,0.7568359375-0.0732421875t0.7568359375-0.0732421875q0.146484375,0,0.4638671875,0.1220703125t0.4638671875,0.1220703125z M509.34401875,209.23828125l-0.09765625,0l0.09765625,0q0.341796875-0.146484375,1.513671875-2.099609375q1.66015625-2.099609375,2.783203125-3.759765625q-0.09765625-0.048828125-0.68359375-0.0732421875t-0.830078125-0.1220703125q-0.68359375,0.390625-1.806640625,1.1474609375t-1.5625,1.0498046875q-4.00390625,2.44140625-5.908203125,3.662109375q1.66015625,0.244140625,1.904296875,0.341796875q0.48828125-0.244140625,1.07421875-0.244140625q0.09765625,0,0.341796875,0.048828125t0.29296875,0.048828125q1.3671875-0.1953125,1.66015625-0.1953125q0.732421875,0,1.220703125,0.1953125z M512.566675,209.482421875l0-0.09765625l0,0.09765625q0.09765625-0.09765625,0.29296875-0.09765625l0.29296875,0l0.1953125,0q0.1953125-0.9765625,0.1953125-1.513671875q-0.390625,0.146484375-2.685546875,1.708984375q0.244140625,0,0.634765625-0.09765625t0.634765625-0.09765625q0.341796875,0,0.439453125,0.09765625z M513.73855,205.478515625q0-0.09765625-0.09765625-0.09765625q0,0.09765625,0.09765625,0.09765625q0-0.048828125-0.048828125-0.1708984375t-0.048828125-0.1708984375q0.09765625-0.09765625,0.09765625-0.1953125q-0.341796875,0.48828125-1.0986328125,1.46484375t-1.0986328125,1.46484375q0.29296875-0.146484375,0.8544921875-0.5126953125t0.8544921875-0.5126953125q0.390625-0.1953125,0.390625-0.68359375q0-0.390625,0.09765625-0.68359375z M509.92995625,202.841796875q-0.09765625,0-0.09765625,0.09765625q0.09765625,0,0.09765625-0.09765625q-0.1953125,0.09765625-0.9765625,0.09765625q-0.830078125,0-0.927734375-0.09765625q-0.244140625,0.1953125-0.6591796875,0.537109375t-0.7568359375,0.634765625t-0.5859375,0.537109375q-0.634765625,0.537109375-1.7333984375,1.416015625t-1.9775390625,1.611328125t-1.66015625,1.46484375q1.5625-0.634765625,3.1982421875-1.611328125t3.6865234375-2.392578125t3.02734375-2.001953125q-0.439453125,0-0.634765625-0.1953125z M506.02370625,200.3515625q-0.1953125-0.390625-5.3955078125,3.515625t-6.7626953125,5.2734375q0.29296875,0.146484375,1.1962890625-0.341796875t2.001953125-1.2451171875t1.1962890625-0.8056640625q1.025390625-0.5859375,5.46875-3.173828125q0.390625-0.1953125,1.1962890625-0.6591796875t1.1962890625-0.6591796875q0.537109375-0.341796875,0.537109375-0.390625t-0.048828125-0.146484375t-0.048828125-0.146484375q-0.390625-0.78125-0.537109375-1.220703125z M523.260034375,189.267578125q0.244140625,0.244140625,1.708984375,2.197265625q0.87890625-0.830078125,2.5146484375-2.4169921875t2.4658203125-2.3681640625q-0.1953125,0.146484375-1.1474609375,0.78125t-1.513671875,0.9521484375t-1.3916015625,0.6103515625t-1.46484375,0.244140625q-0.78125-0.146484375-0.78125-0.5859375q0-0.78125,1.513671875-1.904296875q2.783203125-2.24609375,4.58984375-3.61328125q-1.318359375,0.78125-3.8330078125,2.44140625t-3.7841796875,2.44140625q0.830078125,0.830078125,1.123046875,1.220703125z M526.23855,194.052734375q0.78125,0.634765625,1.806640625,2.099609375q0.048828125,0.048828125,2.6611328125-1.806640625t3.1494140625-2.294921875q0,0.048828125-1.07421875,0.68359375t-2.44140625,1.26953125t-2.001953125,0.634765625q-0.48828125,0-0.48828125-0.390625l0-0.1953125q0.048828125-0.244140625,1.171875-0.9765625q0.48828125-0.341796875,1.46484375-1.0498046875t1.46484375-1.0498046875q4.00390625-3.02734375,5.908203125-4.736328125q0.68359375-0.68359375,0.68359375-0.78125q0-0.048828125-0.29296875-0.48828125q0-0.09765625-0.1953125-0.09765625q-0.048828125,0-1.220703125,0.5859375q-2.099609375,1.123046875-5.2734375,3.22265625q-0.09765625,0.048828125-0.8544921875,0.537109375t-1.5625,1.0009765625t-1.66015625,1.0986328125t-1.3671875,0.9765625t-0.4638671875,0.48828125t0.2197265625,0.5615234375t0.3662109375,0.7080078125z M524.627221875,203.18359375l-0.09765625,0.09765625l0.09765625,0.09765625q0.09765625,0,0.09765625-0.09765625t-0.09765625-0.09765625q-0.1953125,0.1953125-0.5859375,0.1953125l-0.390625,0q-0.341796875,0-0.5859375,0.48828125q-0.634765625,1.07421875-0.732421875,1.611328125q0.09765625,0.1953125,0.09765625,0.87890625l0,0.927734375q2.587890625-1.46484375,10.6201171875-6.2255859375t12.5732421875-7.2021484375q-0.439453125-0.29296875-1.5625-1.708984375q-0.244140625-0.09765625-0.537109375-0.390625l-0.390625-0.390625q-1.07421875,0.537109375-2.099609375,1.26953125q-3.22265625,1.904296875-5.46875,3.41796875q-0.048828125,0-1.7578125,1.1962890625t-2.24609375,1.1962890625q-0.439453125,0-0.439453125-0.390625q-0.390625,0.1953125-0.68359375,0.1953125t-0.390625-0.1953125l-0.09765625-0.09765625q0,0.09765625-0.09765625,0.09765625q-0.1953125,0-0.390625-0.09765625q0.78125,1.07421875,0.78125,2.197265625q0,0.830078125-0.390625,1.611328125q-0.146484375,0.48828125-1.1962890625,1.1474609375t-1.4892578125,0.5615234375q-0.341796875,0-0.634765625-0.09765625t-0.390625-0.09765625q-0.29296875,0-0.48828125,0.09765625l-0.29296875,0q-0.341796875,0-0.732421875-0.1953125z M531.02370625,209.23828125q1.5625-0.146484375,2.63671875-0.9765625q1.5625-1.07421875,3.076171875-2.001953125q1.171875-0.87890625,7.421875-4.8828125q-11.23046875,6.4453125-13.427734375,7.763671875q0.048828125,0,0.146484375,0.048828125t0.146484375,0.048828125z M553.826440625,209.140625l-0.09765625,0l0.09765625,0q0.48828125,0.048828125,0.9033203125-0.1708984375t0.5615234375-0.3662109375t0.5615234375-0.8056640625t0.5126953125-0.7568359375q0.048828125-0.09765625,0.5126953125-0.732421875t0.78125-1.1962890625t0.2685546875-0.8544921875q-2.5390625,1.904296875-7.275390625,4.98046875q0.244140625,0.048828125,0.68359375,0.1220703125t0.5859375,0.1220703125q0.29296875-0.439453125,1.318359375-0.439453125q0.48828125,0,0.5859375,0.09765625z"/></svg>
